<?xml version="1.0" encoding="utf-8"?>
<!-- Generator: Adobe Illustrator 18.1.1, SVG Export Plug-In . SVG Version: 6.00 Build 0)  -->
<!DOCTYPE svg PUBLIC "-//W3C//DTD SVG 1.1//EN" "http://www.w3.org/Graphics/SVG/1.1/DTD/svg11.dtd">
<svg version="1.1" id="Layer_1" xmlns="http://www.w3.org/2000/svg" xmlns:xlink="http://www.w3.org/1999/xlink" x="0px" y="0px"
	 viewBox="0 0 53.4 70.1" enable-background="new 0 0 53.4 70.1" xml:space="preserve">
<g>
	<g>
		<path fill="#721512" d="M3.1,14.5c0.1,0,0.2,0,0.3,0c0.1-0.1,0.3-0.1,0.8-0.1c0.3,0,0.5-0.1,0.5-0.3c0-0.1,0-0.2-0.1-0.3
			c0.2-0.1,0.4-0.2,0.7-0.3c0.4-0.1,0.7-0.2,0.7-0.2c0.1-0.1,0.1-0.3,0.1-0.6c0-0.3,0-0.5,0-0.5c0.1-0.1,0.1-0.3,0.1-0.6
			c0-0.3,0-0.5,0-0.5c0-0.1-0.1-0.2-0.1-0.3c0-0.1,0-0.3,0.1-0.5c0.1-0.2,0.1-0.4,0.1-0.5c0-0.3-0.2-0.4-0.5-0.5
			C5.8,9.3,5.5,9.4,5.2,9.7c-0.3,0.3-0.6,0.5-0.8,0.5c-0.1,0-0.2,0-0.3-0.1c-0.1,0.1-0.2,0.2-0.2,0.1v1.6c-0.2,0.2-0.4,0.4-0.8,0.4
			c-0.4,0-0.7,0.1-0.8,0.2c0.1,0.1,0.2,0.6,0.2,1.3C2.5,14.2,2.7,14.5,3.1,14.5z"/>
		<path fill="#721512" d="M4,9.7c0.2,0.1,0.3,0.2,0.5,0.2c0.2,0,0.4-0.2,0.7-0.5C5.4,9,5.7,8.7,5.8,8.6L6,8.7
			c0.1-0.1,0.2-0.1,0.2-0.1c0.1-0.3,0.1-0.7,0.1-1c0-0.4,0-0.7-0.1-1c0-0.2,0.1-0.3,0.1-0.4c0-0.2-0.1-0.3-0.3-0.3l0.1-0.1
			c0.2-0.7,0.3-1.5,0.3-2.7c0-1.3,0-2.2,0.1-2.7L6.1,0C5.9,0.1,5.6,0.1,5.3,0.1C4.5,0.1,4,0.2,3.9,0.2c0,0.1,0,0.7,0,1.6
			c0,0.7,0,1.3,0.1,1.7C3.9,3.7,3.9,3.8,3.9,4c0,0.2,0,0.3,0.1,0.4L3.9,4.5C3.9,5.3,4,5.8,4.2,6c0.3-0.3,0.7-0.4,1-0.4
			c0.1,0,0.2,0,0.2,0C5.6,5.7,5.8,5.9,5.9,6C5.7,6.1,5.6,6.2,5.6,6.2c-0.1,0-0.1,0-0.1-0.1C5.4,6,5.2,6,5.1,6C4.9,6,4.7,6,4.5,6.2
			C4.2,6.3,4,6.4,3.9,6.5c0,0.2,0,0.7,0,1.7C3.9,8.8,3.9,9.3,4,9.7z"/>
		<path fill="#721512" d="M22.2,9C22.2,9,22.2,9,22.2,9L22.2,9L22.2,9z"/>
		<path fill="#721512" d="M15.7,8.8c0.1,0.3,0.3,0.9,0.4,1.7c0.1,0.7,0.3,1.3,0.5,1.6c0,0.3,0.1,0.5,0.3,0.8c0,0,0.3,0.2,0.7,0.6
			c0.9,0.3,1.4,0.4,1.7,0.4c0.4,0,0.7-0.1,1-0.4c0.5-0.1,0.8-0.5,1.1-1.2l0.1,0.2c0.2-0.4,0.4-1,0.5-1.7c0.2-1.1,0.2-1.6,0.2-1.7
			c-0.7-0.3-1.4-0.3-2.1-0.1c0,0,0,0.1,0,0.3c0,0.1,0,0.2,0.1,0.2C20.1,9.6,20,9.8,20,10c0,0.2,0.1,0.5,0.2,0.8
			c0.1,0.3,0.2,0.6,0.2,0.8c-0.1,0.1-0.1,0.3-0.2,0.7c0,0.3-0.1,0.6-0.3,0.7c-0.1,0-0.1-0.1-0.1-0.2c0-0.2,0-0.3,0-0.3
			c-0.1-0.6-0.4-0.9-0.8-0.9c-0.1,0-0.2,0-0.3,0.1c-0.2-0.1-0.3-0.3-0.3-0.6c-0.1-0.2-0.2-0.5-0.2-0.9c0-0.1,0-0.3,0-0.6
			c0-0.3,0-0.5,0-0.6c0-0.2,0-0.4-0.1-0.6l0.1-0.1c0-0.1,0-0.1,0-0.2c0-0.1-0.1-0.2-0.3-0.2c-0.2,0-0.3-0.1-0.4-0.2
			c0-1.9,0.2-3.8,0.4-5.6c0.2,0.1,0.3,0.2,0.3,0.3c0,0,0,0.1,0,0.2c0,0.1,0,0.2,0,0.2c0,0.2,0.1,0.3,0.2,0.4l0.4-0.2
			c0.1,0.3,0.2,0.6,0.2,1c0,0.1,0,0.3,0,0.6c0,0.3,0,0.5,0,0.6c0,0.4,0.1,0.7,0.2,1l1.3-0.1c0.2-0.5,0.4-0.8,0.8-0.8
			c0.1-0.3,0.1-0.5,0.1-0.8c0-0.8-0.2-1.5-0.6-2.1c-0.2-0.2-0.5-0.5-0.7-0.7c-0.3-0.2-0.5-0.3-0.8-0.3c-0.2-0.1-0.4-0.1-0.7-0.2
			c-0.4,0-0.7,0-0.7,0c-0.9,0.3-1.7,0.9-2.1,1.9c-0.1,0.1-0.1,0.3-0.1,0.7c0,0.3-0.1,0.5-0.3,0.7c-0.1,1.3-0.3,2.2-0.4,2.8
			c0.1,0.1,0.1,0.2,0.1,0.3c0,0.1,0,0.2-0.1,0.3c0,0.1-0.1,0.2-0.1,0.3c0,0.1,0,0.2,0.1,0.2l-0.1,0.1C15.2,9,15.4,9,15.7,8.8z"/>
		<path fill="#721512" d="M7.9,24.8c0.2-0.1,0.4-0.2,0.5-0.2c0.1,0,0.1,0,0.2,0.1c0.3-0.2,0.5-0.3,0.6-0.4c0.2-0.2,0.2-0.4,0.2-0.6
			c-0.2-0.7-0.7-1.2-1.6-1.4c-0.3,0.4-0.9,1.1-1.5,2.2c-0.6,1-1.1,1.7-1.6,2.1c-0.2,0.3-0.3,0.6-0.3,0.9c0,0.2,0.1,0.6,0.2,1.1
			c0.2-0.1,0.5-0.1,0.8,0c0.5,0.1,0.8,0.1,0.9,0.1c0.3,0,0.5,0,0.7-0.1c0.8,0.1,1.2,0.2,1.4,0.1l0.1-0.1l0.1,0.1c0,0,0.1,0,0.3-0.1
			L9,28.7c0.2,0.1,0.5,0.1,0.9,0.1c0.5,0,0.8,0,0.8,0c0.1-0.3,0.1-0.7,0.1-1.2c0-0.6,0-1,0-1.1h0c0,0,0,0,0,0c0,0,0,0,0,0
			c-0.1,0-0.4,0-0.8-0.1c-0.4,0-0.7-0.1-0.9-0.1c-0.6,0-1,0.1-1.3,0.4c0,0-0.1,0-0.3,0c-0.1,0-0.2,0-0.3-0.1c0.2-0.2,0.3-0.5,0.3-1
			C7.6,25.4,7.7,25,7.9,24.8z"/>
		<path fill="#721512" d="M11.8,17.9C11.8,17.9,11.8,17.9,11.8,17.9C11.8,17.9,11.8,17.9,11.8,17.9L11.8,17.9z"/>
		<path fill="#721512" d="M9.6,14.8c-0.1-0.3-0.2-0.5-0.3-0.5c-0.1,0-0.3,0.2-0.5,0.5c-0.2,0.3-0.3,0.5-0.4,0.6
			c-0.5,0-1.1,0.2-1.7,0.5c-1,0.8-1.5,1.9-1.5,3.2c0,0,0.1,0.1,0.3,0.1c0.1,0.1,0.3,0.1,0.4,0.1s0.2,0,0.3-0.1
			c0.1,0,0.2,0.1,0.4,0.2c0.2,0.1,0.3,0.1,0.4,0.1c0.1,0,0.1,0,0.2,0c0.2-1.1,0.6-2.2,1.2-3.1c0.5,0.5,0.7,1.1,0.8,2
			c0,0.1-0.2,0.6-0.6,1.6c-0.3,0.7-0.4,1.2-0.5,1.7c0.1,0,0.2,0,0.2,0c0.3,0,0.5,0.2,0.8,0.5c0.4,0.4,0.6,0.6,0.6,0.6
			c0.2-0.1,0.4-0.3,0.5-0.6c0-0.1,0.1-0.3,0.2-0.7c0.5-0.4,0.8-1,1-1.7c0,0,0.1-0.7,0.4-2c0-0.1-0.2-0.2-0.6-0.4
			c-0.4-0.2-0.6-0.3-0.6-0.4c0,0,0-0.1,0-0.1c-0.3-0.7-0.7-1.2-1.3-1.4c0.1-0.1,0.2-0.3,0.2-0.5C9.6,15,9.6,14.9,9.6,14.8z"/>
		<path fill="#721512" d="M13.5,24c0,0.7,0,1.4,0,2.1l2,0c0.1-0.1,0.2-0.1,0.3-0.1c0.1,0,0.2,0,0.3,0.1c0.2,0.1,0.3,0.1,0.4,0.1
			c0.1,0,0.1,0,0.2,0c0.7,0,1.5-0.5,2.4-1.4c0.4-0.8,0.5-1.6,0.5-2.4c0-0.9-0.3-1.7-0.8-2.2c-0.2,0-0.4,0.1-0.5,0.3
			c-0.2,0.2-0.3,0.3-0.4,0.3c-0.1-0.2-0.3-0.4-0.5-0.4c-0.3-0.1-0.6-0.1-0.7-0.2c0,0,0-0.1,0.1-0.2c0.1,0.1,0.2,0.1,0.3,0.1
			c0.5-0.4,0.8-0.8,1.2-1.4c0.3-0.6,0.5-1.1,0.5-1.7c0-0.6-0.2-1.2-0.5-1.7c-0.4-0.6-0.8-1-1.4-1.1c-1.1-0.1-2.1-0.1-2.8-0.1
			c0-0.2-0.1-0.3-0.1-0.5c-0.2-0.8-0.3-1.3-0.3-1.6c0-0.1-0.1-0.5-0.1-1.1c-0.1-0.4-0.2-0.8-0.3-1c-0.3,0.1-0.6,0.2-0.9,0.3
			c-0.3,0.1-0.6,0.3-0.8,0.4c-0.2-0.1-0.3-0.3-0.3-0.7c-0.2-0.2-0.4-0.3-0.5-0.2c-0.1,0.1-0.3,0.1-0.4,0.1c-0.5,0-0.7-0.2-0.7-0.7
			l0.5-5.5c0.2,0.7,0.4,1.7,0.5,2.8c0.1,1,0.2,1.9,0.3,2.9c0.4,0,0.8-0.1,1.1-0.1c0.4,0,0.8-0.1,1-0.3c0-0.2,0-0.4,0-0.6
			c0-0.6-0.2-1.6-0.5-2.8c-0.3-1.2-0.4-2.1-0.4-2.8c0.1-0.9-0.2-1.3-0.8-1.3c-0.2,0-0.5,0.1-1,0.2c-0.5,0.1-0.8,0.2-1,0.2
			C9.2,1.5,9,1.4,8.8,1.3C8.6,1.5,8.4,1.8,8.5,2.4c0,0.2-0.1,0.7-0.1,1.3L7.3,14.1l0.1,0.3c0,0,0.2,0,0.6,0c0.2,0,0.4,0,0.5-0.1
			l-0.1-0.1c0.1,0,0.2-0.2,0.3-0.4c0.1-0.2,0.2-0.3,0.4-0.2c0.3-0.3,0.5-1,0.5-2c0.1-0.1,0.3-0.1,0.7-0.2c0.3,0,0.6-0.1,0.8-0.3
			c0.1,0.1,0.1,0.2,0.2,0.5c0,0.2,0.1,0.4,0.1,0.5c-0.3,0.2-0.4,0.3-0.4,0.3c0,0.1,0.1,0.1,0.3,0.3c0.2,0.1,0.3,0.2,0.3,0.4
			c0,0,0,0.1-0.1,0.2c0,0.1,0.1,0.5,0.2,1.2c0.1,0.5,0.2,0.8,0.3,1.1c0.1,0,0.3,0,0.5-0.1c0,0.4,0,0.8,0,1.3c0,1.2,0,2.1,0,2.7
			c0,1,0,1.9,0.1,2.8C13.2,22.6,13.5,23.2,13.5,24z M15.1,15.4c0.3-0.1,0.6,0.1,0.8,0.3c0.1,0.3,0.3,0.5,0.4,0.8
			c0,0.1,0,0.2,0.1,0.2c0.1,0.1,0.2,0.2,0.2,0.2l0.1-0.1c0.2,0.1,0.2,0.3,0.2,0.4c0,0.1-0.1,0.3-0.2,0.5c-0.1,0.2-0.2,0.4-0.3,0.5
			c-0.1-0.1-0.2-0.1-0.3-0.1c-0.1,0-0.3,0.1-0.4,0.3c-0.1,0.2-0.3,0.3-0.4,0.3c-0.1,0-0.1,0-0.2,0L15.1,19
			C15.1,17.4,15.1,16.2,15.1,15.4z M15.2,20.8c0,0,0,0.1,0.1,0.2c0.2,0,0.3-0.1,0.4-0.2l0-0.2c0.1,0.1,0.3,0.1,0.4,0.1
			c0.3,0,0.5-0.1,0.6-0.3c0,0.2,0.1,0.4,0.3,0.6c0.2,0.2,0.3,0.4,0.3,0.6h0c0,0-0.1,0.5-0.2,1.3c-0.1,0.5-0.3,0.9-0.6,1.1
			c-0.1,0-0.2,0-0.4,0c-0.2,0-0.3,0-0.3,0c-0.3,0-0.5,0.1-0.6,0.4c-0.1-0.4-0.1-0.9-0.1-1.5c0-0.8,0-1.3,0-1.5
			C15,21.3,15,21.1,15.2,20.8z"/>
		<path fill="#721512" d="M23.3,7.6C23.3,7.6,23.3,7.6,23.3,7.6C23.2,7.6,23.2,7.6,23.3,7.6z"/>
		<path fill="#721512" d="M26.3,24.7c-0.4-0.1-1-0.1-1.5-0.1c-0.9,0-1.4,0-1.5,0c-0.1-0.4-0.1-0.8-0.1-1.3c0-0.3,0-0.7,0-1.3
			c0-0.6,0-1,0-1.2c0.1-0.1,0.2-0.1,0.4,0c0.2,0.1,0.3,0.1,0.4-0.1c0.4,0,0.8,0,1.4,0c-0.1-0.2-0.1-0.5-0.2-0.7
			c-0.1-0.2-0.2-0.4-0.4-0.5c-0.1-0.2-0.3-0.2-0.4-0.2c-0.1,0-0.3,0.1-0.5,0.2c-0.3,0.2-0.4,0.3-0.5,0.4l-0.1-0.1
			c-0.1,0.1-0.2,0.2-0.3,0.5c-0.1,0.4-0.2,0.6-0.2,0.6l-0.1-0.1c0,0-0.2-0.4-0.6-0.7c-0.3-0.2-0.5-0.3-0.7-0.3
			c-0.2,0-0.3,0.4-0.5,0.5c0.1,0.5,0.2,1.1,0.2,1.7c0,0.4,0,1-0.1,1.8c-0.1,0.9-0.1,1.5-0.1,1.9c0.1,0.1,0.2,0.2,0.1,0.4
			c-0.1,0.2-0.1,0.3,0,0.4c0.3,0.2,0.5,0.2,0.7,0c0.2,0.1,0.5,0.1,0.9,0.1c0.5,0,0.8,0,0.9,0c0-0.1,0-0.1,0.1-0.2l0.4,0.4
			c0.3-0.1,0.7-0.1,1.2-0.1c0.7,0,1.1,0,1.2,0c0-0.1,0-0.3,0-0.6c0-0.3,0-0.5,0-0.6C26.2,25,26.2,24.9,26.3,24.7z"/>
		<path fill="#721512" d="M26.3,24.7C26.3,24.7,26.3,24.7,26.3,24.7C26.3,24.7,26.3,24.7,26.3,24.7L26.3,24.7z"/>
		<path fill="#721512" d="M21.1,13.4c-0.2,1.4-0.3,3.4-0.1,4.7l0.1-0.2l0.2,0.3c-0.1,0-0.1,0.1-0.1,0.4c0.1,0.1,0.3,0.2,0.5,0.3
			c0.2,0.1,0.6-0.4,0.7-0.5l0.1,0.1l0.1-0.1c0,0.2,0.1,0.3,0.3,0.5c0.2,0.2,0.3,0.3,0.4,0.3c0-0.2,0-0.3,0.1-0.4c0,0,0-0.2,0-0.6
			c0-0.3-0.1-0.5-0.3-0.6c0,0.1,0-0.3,0-1.4c0-0.5,0.1-0.9,0.3-1.1c0.1,0,0.5,0.1,1.1,0.1c0.5,0.1,0.9,0.1,1.2,0.1
			c0.1,0,0.3,0,0.4,0c0-0.2,0-0.4,0.1-0.7c0.1-0.3,0.1-0.5,0.1-0.7c0-0.2-0.1-0.4-0.2-0.6c-0.2,0-0.4,0-0.7,0c0-0.1,0-0.1-0.1-0.2
			c0-0.1-0.1-0.3-0.1-0.4c0-0.1,0-0.1,0-0.2c0.1-0.3,0.1-0.9,0.1-1.7c-0.1-0.7,0-1.2,0.3-1.6C25.9,9.2,26,9,26,8.9
			c0-0.2-0.3-0.3-0.8-0.3c-0.5,0-0.8-0.2-0.9-0.4c0.1-0.1,0.1-0.1,0.3,0c0.1,0.1,0.2,0.1,0.3-0.1c0.1,0,0.1,0.1,0.3,0.1
			c0.1,0.1,0.2,0.1,0.3,0.1c0,0,0.1,0,0.1,0c0.2-0.1,0.3-0.2,0.5-0.4c0.2-0.1,0.2-0.3,0.2-0.5l0.2,0.4c-0.1,1,0,1.8,0.4,2.6
			c0.1,0.2,0.2,0.9,0.3,1.9c0.1,0.8,0.3,1.4,0.7,1.7c0.1-0.1,0.3-0.1,0.6-0.1c0,0,0.1,0,0.1,0c0,0.1,0,0.3,0,0.5
			c-0.1,0.2-0.1,0.7-0.1,1.3l-1.1,10.4l0.1,0.3c0,0,0.2,0,0.6,0c0.2,0,0.4,0,0.5-0.1l-0.1-0.1c0.1,0,0.2-0.2,0.3-0.4
			c0.1-0.2,0.2-0.3,0.4-0.2c0.3-0.3,0.5-1,0.5-2c0.1-0.1,0.3-0.1,0.7-0.2c0.4,0,0.6-0.1,0.8-0.3c0.1,0.1,0.2,0.2,0.2,0.5
			c0,0.2,0.1,0.4,0.1,0.5c-0.3,0.2-0.4,0.3-0.4,0.3c0,0.1,0.1,0.2,0.3,0.3c0.2,0.1,0.3,0.2,0.3,0.4c0,0.1,0,0.1-0.1,0.2
			c0,0.1,0.1,0.5,0.2,1.2c0.1,0.5,0.2,0.8,0.3,1.1c0.1,0,0.4-0.1,0.7-0.1c0.3-0.1,0.6-0.1,0.7-0.1c0.2,0,0.4,0,0.6,0.1
			c0-0.2,0-0.3,0-0.5c0-0.4-0.1-0.9-0.2-1.6c-0.2-0.8-0.3-1.3-0.3-1.6c0-0.1-0.1-0.5-0.1-1.1c-0.1-0.4-0.2-0.8-0.3-1
			c-0.3,0.1-0.6,0.2-0.9,0.3c-0.3,0.1-0.6,0.3-0.8,0.4c-0.2-0.1-0.3-0.3-0.3-0.7c-0.2-0.2-0.4-0.3-0.5-0.2c-0.1,0.1-0.3,0.1-0.4,0.1
			c-0.5,0-0.7-0.2-0.7-0.7l0.5-5.5c0.2,0.7,0.4,1.7,0.5,2.8c0.1,1,0.2,1.9,0.3,2.9c0.4,0,0.8,0,1.1-0.1c0.4,0,0.8-0.1,1-0.3
			c0-0.2,0-0.4,0-0.6c0-0.6-0.2-1.6-0.5-2.8c-0.3-1.2-0.4-2.1-0.4-2.8c0-0.1,0-0.2,0-0.3c0,0,0.1,0.1,0.1,0.1
			c0.2-0.2,0.5-0.1,0.6,0.1c0.6-0.2,1.2-0.3,1.7-0.4c0.7-0.2,1.2-0.6,1.5-1.1l0.1,0.1c0.1,0,0.1,0,0.3-0.1h0
			c-0.2-0.2-0.2-0.4-0.2-0.6c0-0.2,0-0.4,0.1-0.7c0.1-0.3,0.1-0.5,0.1-0.7c-0.1-0.1-0.2-0.2-0.5-0.2c-0.2,0-0.4-0.1-0.5-0.3
			c0.3-0.1,0.4-0.3,0.4-0.6c0,0,0-0.1,0-0.2c0-0.1,0-0.2,0-0.2c0-0.2,0-0.4,0.1-0.5c-0.4-0.9-1-1.6-1.7-1.9
			c-0.4-0.4-0.8-0.7-1.2-1.1c-0.4-0.5-0.7-0.9-0.7-1.4c0-0.1,0-0.3,0.1-0.4c0-0.3,0.1-0.4,0.4-0.5c0.3-0.1,0.5-0.2,0.5-0.4
			c0-0.1,0-0.1,0-0.2c0.2,0.2,0.3,0.3,0.3,0.4c0.4,0.1,0.6,0.4,0.6,0.8c0,0.2,0,0.4,0,0.6c0,0.3,0,0.5,0.1,0.6
			c0.6-0.2,1-0.2,1.3-0.2c0.2,0,0.4,0,0.6,0.1c0,0,0-0.3,0-0.8c0-0.3,0-0.6-0.1-0.8c-0.2-0.9-0.8-1.6-1.9-2l-0.5,0.1
			c-0.1,0-0.3-0.1-0.4-0.1c-0.3,0-0.7,0.2-1.1,0.7c-0.4,0.5-0.8,0.8-1.1,0.8C31.3,3.1,31.3,3,31.3,3H31c-0.3,0.6-0.5,1.2-0.5,1.9
			c0,0.4,0,0.7,0.1,1.1c0,0,0,0.1,0.1,0.1c0.1,0.1,0.1,0.2,0.1,0.2c0,0,0,0.1-0.1,0.1c0,0,0.2,0.2,0.4,0.5c0.1,0.2,0.3,0.3,0.5,0.3
			l-0.1,0.1c0.3,0.3,0.8,0.8,1.4,1.4c0,0.1,0.2,0.2,0.5,0.2c0.2,0.1,0.3,0.2,0.3,0.4l1,0.9c0.1,0.1,0.1,0.2,0.1,0.3
			c0,0.2,0,0.5,0,0.7c0,0.3,0.1,0.5,0.2,0.6c0,0,0,0.2,0,0.5c0,0.2-0.1,0.4-0.3,0.4c0.1-0.5-0.1-0.7-0.4-0.7c-0.1,0-0.2,0-0.4,0.1
			c-0.2,0-0.4,0.1-0.5,0.1c-0.3,0-0.5-0.2-0.5-0.5c-0.1-0.2-0.1-0.4-0.1-0.4c0-0.1,0-0.2,0.1-0.2c-0.2-0.1-0.2-0.1-0.2-0.2
			c0,0,0-0.1,0.1-0.2c0.1-0.1,0.1-0.2,0.1-0.2c0-0.1,0-0.1,0-0.2c-0.3,0.1-0.9,0.1-1.7,0.1c-0.1,0-0.2,0-0.3,0
			c-0.1,0-0.2,0.1-0.2,0.1c0,0.7,0.2,1.4,0.5,2.1c0.1,0.1,0.1,0.2,0.2,0.3c-0.2,0-0.4,0.1-0.7,0.1c-0.5,0.1-0.8,0.1-1,0.2
			c0-0.4-0.1-0.9-0.2-1.5c-0.2-0.8-0.3-1.3-0.3-1.5c0-0.6-0.2-1.5-0.6-2.7C28.2,6.5,28,5.6,28,5c0-0.4,0-0.7,0.1-1
			c0.3-0.3,0.5-0.7,0.8-1.2c0.2-0.4,0.4-0.9,0.5-1.3l0.1,0V1.1l-1.9-0.2c-0.2,0.1-0.3,0.4-0.5,0.8c-0.1,0.4-0.3,0.7-0.5,0.9
			c0,0.1,0,0.2,0,0.4c0,0.3-0.2,0.8-0.6,1.3c-0.3,0.5-0.5,1-0.4,1.4c-0.1,0-0.1-0.1-0.1-0.2c0-0.2,0-0.2,0-0.2
			c-0.1-0.3-0.1-0.5-0.1-0.8c0-0.3,0.1-0.9,0.2-1.6C25.9,2,25.9,1.4,25.9,1l-2.3-0.1c0,0.3-0.1,0.8-0.1,1.3c-0.1,0.6-0.1,1-0.1,1.3
			c0,0.2,0,0.4,0.1,0.8c0.1,0.3,0.1,0.6,0.1,0.8c0,0.2,0,0.4-0.1,0.7c-0.1,0.3-0.1,0.6-0.1,0.7c0,0.4,0.1,0.7,0.4,0.9
			c0,0.1-0.1,0.1-0.2,0.1c-0.1,0-0.2,0-0.3,0c0,0.1,0,0.7,0,1.7c0,0.7,0,1.3-0.1,1.7c0.1,0.2,0.1,0.4,0.1,0.6c0,0.2,0,0.4-0.1,0.7
			c-0.1,0.3-0.1,0.6-0.1,0.7c0,0.2,0.1,0.4,0.1,0.5c-0.2,0-0.4,0-0.5,0C22.2,13.6,21.6,13.5,21.1,13.4z"/>
		<path fill="#721512" d="M29.4,26.3c-0.1,0-0.3,0.2-0.5,0.5c-0.3,0.4-0.4,0.6-0.4,0.6c0,0.1,0.1,0.2,0.1,0.2c0,0,0.2,0.1,0.3,0.2
			c0.6,0,0.8-0.3,0.8-0.8c0-0.1,0-0.1,0-0.2C29.6,26.5,29.5,26.3,29.4,26.3z"/>
		<path fill="#721512" d="M35.7,13.8c-0.3,0-0.5,0.1-0.5,0.4c0.1,0.4,0.1,0.9,0.1,1.6v1.4c0,0.6,0,1.1,0.1,1.5l-0.1,7.2
			c0.2,0.2,0.5,0.4,1,0.4c0.1,0,0.3,0,0.5,0c0.2,0,0.4,0,0.6,0c0.1,0,0.2,0,0.3,0v-0.3c0.1-0.6,0.2-1.3,0.2-2.1c0-1.3,0-2,0-2.1
			c-0.1-0.1-0.1-0.2-0.1-0.3c0,0,0-0.1,0-0.2c0-0.1,0-0.2,0-0.2c0-0.1,0-0.2-0.1-0.2c0.2-0.1,0.3-0.3,0.3-0.5c0-0.4,0.1-0.6,0.4-0.7
			l0.1,0.1c0,0,0,0.1,0,0.1c0,0.1-0.1,0-0.2,0.1c-0.1,0.1,0,0.2,0,0.2l0.1,0.1c0.1,0.1,0.1,0.1,0.1,0.4c0,0.4,0,0.5,0,0.5
			c0.3,1.7,0.4,3.4,0.3,5.1c0.3,0.1,0.6,0.1,0.9,0.2c0.3,0.1,0.5,0.2,0.7,0.3c0.1-0.1,0.1-0.2,0.1-0.3c0,0,0-0.1,0-0.2
			c0-0.1,0-0.1,0-0.1c0-0.2,0.1-0.3,0.2-0.4c0.1,0.1,0.2,0.2,0.2,0.1c0,0,0-0.3,0-0.8c0-0.4,0-0.7,0.1-0.8h0
			c-0.4-0.5-0.6-1.3-0.7-2.3c-0.2-1.2-0.3-2-0.5-2.4l1-0.9c0.2-1.4,0.3-2.2,0.3-2.4c0-0.8-0.2-1.3-0.5-1.8c0,0,0.1-0.1,0.1-0.1
			c0.1,0.1,0.1,0.2,0.1,0.2c0.1,0,0.2,0,0.3,0c0.1,0,0.2,0,0.2-0.1c0.1,0.1,0.2,0.1,0.4,0.1c0.2,0,0.3,0,0.4,0.1l0.2-0.5
			c0.1-0.1,0.3-0.2,0.5-0.2c0.1,0,0.2,0,0.4,0.1c0.2,0,0.4,0,0.5,0c0-0.1-0.1-0.2-0.2-0.5c-0.1-0.2-0.2-0.4-0.3-0.5
			c-0.1,0-0.2,0.1-0.3,0.1c-0.1,0-0.3-0.1-0.5-0.2c-0.2-0.1-0.4-0.2-0.5-0.2c-0.1,0-0.2,0.1-0.3,0.3l-0.2,0.4
			c-0.3-0.1-0.6-0.2-0.7-0.4c-0.1-0.2-0.1-0.4-0.2-0.8c-0.1-0.4-0.1-0.6-0.2-0.8c-0.3,0-0.6,0.1-0.8,0.3c-0.2,0.2-0.5,0.4-0.7,0.5
			c0,0.1-0.2,0.1-0.4,0.1c-0.2,0-0.4,0.1-0.4,0.2c0,0.1,0,0.1,0.1,0.2c0.1,0.3,0.2,0.4,0.4,0.4c0.1,0,0.2,0,0.4-0.1
			c0.2,0,0.3-0.1,0.3-0.1c0.1,0,0.2,0.1,0.5,0.2c0.2,0.1,0.4,0.2,0.4,0.3c-0.1,0.2-0.2,0.4-0.4,0.5c-0.1-0.1-0.2-0.1-0.3-0.2
			c-0.3-0.2-0.5-0.3-0.7-0.3c-0.2,0.3-0.5,0.5-1,0.5c-0.1,0-0.2,0-0.4,0c-0.2,0-0.3,0-0.4,0c-0.3,0-0.5,0-0.6,0.1
			C36.2,13.9,35.9,13.8,35.7,13.8z M37.7,15.3c0.1-0.2,0.1-0.3,0.1-0.4c0.1,0,0.1,0,0.2-0.1c0.1-0.1,0.1-0.1,0.2-0.2
			c0,0,0.4,0.3,0.7,0.3c0.1-0.2,0.2-0.2,0.4,0c-0.2-0.1,0.2,0.2,0.2,0.5c0,0.7,0.2,0.5,0.2,0.4l0,0c-0.2,0.2-0.4,0.6-0.5,1.1
			c-0.1,0.7-0.2,1.2-0.2,1.3c-0.2,0.4-0.5,0.6-0.9,0.6c-0.1,0-0.2,0-0.3,0c0-0.3,0-0.7,0-1.1c0-0.6,0-0.9,0-1.1c0-0.3,0-0.5,0.1-0.8
			c-0.1-0.1-0.2-0.2-0.2-0.3C37.6,15.6,37.6,15.4,37.7,15.3z"/>
		<path fill="#721512" d="M38.3,11.7c0.4,0,0.7-0.1,1-0.3c0.5-0.4,0.7-0.6,0.8-0.7l0.1,0.1l0.2-0.2l-0.4-6.2
			c0.1-0.1,0.2-0.2,0.2-0.3c0.1-0.1,0.2-0.2,0.4-0.1c0,0,0-0.2,0-0.4c0-0.2,0-0.3,0.1-0.4l0.4,0.6c0,0,0-0.1,0-0.2
			c0-0.1,0.1-0.2,0.2-0.2c0.4,0.9,0.6,2.3,0.6,4.1c0.1,2.1,0.2,3.5,0.3,4.2l-0.2,0.1c0,0.3,0.1,0.5,0.3,0.6c0.2,0.1,0.4,0.2,0.7,0.4
			c0.1-0.1,0.2-0.2,0.3-0.2c0.1,0,0.2,0.1,0.2,0.3c0.1,0.2,0.2,0.3,0.3,0.3c0.1,0,0.1,0,0.2,0c0.1-0.4,0.2-1,0.3-1.7
			c0.1-1,0.2-1.6,0.2-1.7l0,0l-0.1-0.1c0-0.9-0.1-1.7-0.1-2.6c-0.1-1.1-0.2-1.9-0.4-2.6c-0.3-0.9-0.8-1.6-1.5-2.1
			c-0.3,0-0.5-0.1-0.6-0.3c0,0-0.1,0-0.2,0c-0.1,0-0.2,0-0.2,0.2c-0.2-0.1-0.3-0.1-0.5-0.1c-0.2,0-0.5,0.1-0.8,0.2
			c-0.4,0.2-0.7,0.2-0.8,0.3c-1,0.9-1.6,2.3-1.6,4.2c0,0.7,0.1,1.6,0.2,2.6C38,10,38.1,10.8,38.3,11.7z"/>
		<path fill="#721512" d="M46.5,12.1c0.2,0,0.3,0,0.4,0.1c0.6-0.1,0.9-0.4,0.9-0.8c0-0.2,0-0.6-0.1-1.4c-0.1-0.6,0-1.1,0.1-1.4
			c0.1,0.2,0.4,0.4,0.9,0.7c0.4,0.2,0.6,0.5,0.5,0.9c0,0,0.1,0,0.2,0c0.1,0,0.2,0.1,0.3,0.2c0.1,0.1,0.1,0.1,0.2,0.2l0.1-0.1
			c0.3,0.3,0.3,0.9,0.2,1.7c0,0.1,0,0.2,0,0.3c0,0.5-0.2,0.9-0.5,1.4c0,0.2,0.2,0.3,0.3,0.4c0.2,0.1,0.4,0.2,0.5,0.2
			c0.1-0.1,0.2-0.1,0.3-0.1c0.1,0,0.2,0,0.3,0.1c0.1,0,0.2,0.1,0.3,0.1c0.2,0,0.3-0.1,0.3-0.3V12l-0.1-0.1l0.1-9.9
			c-0.4-0.1-0.9-0.1-1.5,0c0-0.1-0.1-0.1-0.1-0.2c-0.1-0.1-0.1-0.1-0.2-0.1c0,0.1-0.1,0.2-0.2,0.4c-0.1,0.2-0.1,0.3-0.1,0.5
			c0,0.1,0,0.1,0,0.2c0,0.1,0,0.1,0,0.2c0,0.1,0,0.3,0.1,0.5c0,0.2,0.1,0.4,0.1,0.5c0,0.1,0,0.3-0.1,0.4C49.9,4.6,50,5.1,50,5.8
			c0,1,0,1.6,0,1.6c0,0.1,0,0.1,0.1,0.3c0.1,0.1,0.1,0.2,0.1,0.2c0,0.1,0,0.1-0.1,0.2l-0.4-0.4c0-0.1,0-0.2,0-0.3
			c0-0.5-0.3-1-0.9-1.4c-0.5-0.3-1-0.6-1.5-0.9c0-0.1,0-0.1,0-0.2c0-0.1,0.1-0.2,0.3-0.2c0.2,0,0.3-0.1,0.3-0.3
			c0.3,0.3,0.5,0.5,0.7,0.8c0.3,0.3,0.6,0.5,0.8,0.7V5c-0.4-0.8-0.7-1.6-0.8-2.3l-0.7-1.3c-0.2,0.1-0.6,0.1-1.1,0.1
			c-0.5,0-0.9,0-1.1,0.1c0,3.5,0.1,7,0.4,10.4C46.1,12.1,46.2,12.1,46.5,12.1z"/>
		<path fill="#721512" d="M43.9,14.4c-0.4,0.5-0.8,0.8-1.1,0.8c-0.1-0.2-0.1-0.2-0.1-0.3h-0.2c-0.3,0.6-0.5,1.2-0.5,1.9
			c0,0.4,0,0.7,0.1,1.1c0,0,0,0.1,0.1,0.1c0.1,0.1,0.1,0.1,0.1,0.2c0,0.1,0,0.1-0.1,0.1c0,0,0.2,0.2,0.4,0.5
			c0.1,0.2,0.3,0.3,0.5,0.3L43,19.4c0.3,0.3,0.8,0.8,1.4,1.4c0,0.1,0.2,0.2,0.5,0.2c0.2,0.1,0.3,0.2,0.2,0.4l1,0.9
			c0.1,0.1,0.1,0.2,0.1,0.3c0,0.2,0,0.5,0,0.7c0,0.3,0.1,0.5,0.3,0.6c0,0,0,0.2,0,0.5c0,0.2-0.1,0.4-0.3,0.4
			c0.1-0.5-0.1-0.7-0.4-0.7c-0.1,0-0.2,0-0.4,0.1c-0.2,0-0.3,0.1-0.5,0.1c-0.3,0-0.5-0.2-0.5-0.5c-0.1-0.2-0.1-0.4-0.1-0.4
			c0-0.1,0-0.2,0.1-0.2c-0.2,0-0.2-0.1-0.2-0.2c0,0,0-0.1,0.1-0.2c0-0.1,0.1-0.2,0.1-0.2c0-0.1,0-0.1,0-0.2
			c-0.3,0.1-0.9,0.1-1.7,0.1c-0.1,0-0.2,0-0.3,0c-0.1,0.1-0.2,0.1-0.2,0.1c0,0.7,0.2,1.4,0.5,2.1c0.4,0.7,0.8,1.2,1.4,1.5
			c0.2-0.2,0.4-0.1,0.6,0.1c0.6-0.2,1.2-0.3,1.7-0.4c0.7-0.2,1.2-0.6,1.5-1.1L48,25c0,0,0.1,0,0.3-0.1h0c-0.2-0.2-0.2-0.4-0.2-0.6
			c0-0.2,0-0.4,0.1-0.7c0.1-0.3,0.1-0.5,0.1-0.7c-0.1-0.1-0.2-0.2-0.5-0.2c-0.2,0-0.4-0.1-0.5-0.3c0.3-0.1,0.4-0.3,0.4-0.6
			c0,0,0-0.1,0-0.2c0-0.1,0-0.2,0-0.2c0-0.2,0-0.4,0.1-0.5c-0.4-0.9-1-1.6-1.7-1.9c-0.4-0.4-0.8-0.7-1.2-1.1
			c-0.4-0.5-0.7-0.9-0.7-1.4c0-0.1,0-0.3,0.1-0.4c-0.1-0.3,0.1-0.4,0.4-0.5c0.3-0.1,0.5-0.2,0.5-0.4c0-0.1,0-0.1,0-0.2
			c0.2,0.2,0.3,0.3,0.3,0.4c0.4,0.1,0.5,0.4,0.6,0.8c0,0.2,0,0.4,0,0.6c0,0.3,0,0.5,0.1,0.6c0.6-0.2,1-0.2,1.3-0.2
			c0.2,0,0.4,0,0.6,0.1c0,0,0-0.3,0-0.8c0-0.3,0-0.6-0.1-0.8c-0.1-0.6-0.4-1.1-1-1.5c0.1-0.1,0.1-0.2,0.3-0.3c0.1,0,0.3-0.1,0.6-0.2
			h0c-0.1-0.1-0.1-0.3-0.1-0.6c0.1-0.3,0-0.5-0.2-0.6c-0.1,0-0.2,0-0.3,0.1c-0.1,0-0.2-0.1-0.3-0.1c-0.1,0-0.4,0.1-0.7,0.2
			c-0.3,0.1-0.5,0.2-0.7,0.2c0,0.1,0,0.2,0,0.5c0,0.1,0,0.2,0,0.3l-0.2,0.1c-0.1,0-0.3-0.1-0.4-0.1C44.7,13.7,44.3,13.9,43.9,14.4z"
			/>
	</g>
	<g>
		<path fill="#721512" d="M9.4,31c-2.2,0-3.5,0.1-3.9,0.3c0,0.4,0,2-0.1,4.9c0,2.2,0,0.6,0.2,1.9c-0.2,0.3-0.3,0.7-0.4,1.2
			c0,0.6,0.1,1,0.4,1.3l-0.4,0.3c0,2.3,0.2,3.7,0.7,4.3c1-0.7,1.9-1.1,2.8-1.1c0.2,0,0.4,0,0.7,0.1c0.7,0.4,1.2,0.8,1.6,1.1
			c-0.6,0.4-0.9,0.6-0.9,0.6c-0.2,0-0.3-0.1-0.4-0.3c-0.4-0.3-0.7-0.4-1.1-0.4c-0.5,0-1,0.2-1.7,0.6c-0.9,0.5-1.5,0.7-1.7,0.8
			c0,0.5,0,2.1-0.1,4.9c0,2,0,3.5,0.2,4.7c0.5,0.4,1,0.6,1.4,0.6c0.6,0,1.2-0.5,1.9-1.5c0.8-1.2,1.5-1.9,2-2.2l0.3,0.3
			c0.3-0.3,0.5-0.4,0.7-0.3c0.3-0.9,0.4-1.9,0.4-3.1c0-1.1-0.1-2.1-0.3-3c0.2-0.5,0.2-0.9,0.2-1.1c0-0.6-0.3-0.9-0.9-1l0.4-0.4
			c0.6-1.9,0.9-4.5,0.9-7.9c0.1-3.9,0.2-3.4,0.5-4.8l-1-1.1C11.1,30.9,10.4,31,9.4,31z"/>
		<path fill="#721512" d="M10.7,54.7c-0.5,0.1-1.2,0.7-2.1,1.5c-0.9,0.9-1.6,1.3-2.2,1.3c-0.3,0-0.5-0.1-0.8-0.2
			c-0.3,0.3-0.5,0.4-0.7,0.3l-0.1,4.7c-0.5,0.7-1.2,1.1-2.3,1.1c-1.2,0-2,0.2-2.4,0.5c0.2,0.4,0.4,1.7,0.5,3.8
			c0.1,1.5,0.7,2.3,1.9,2.3c0.3,0,0.6,0,0.9-0.1c0.2-0.1,1-0.3,2.2-0.3c1,0,1.5-0.4,1.5-1c0-0.3-0.1-0.6-0.3-1
			c0.4-0.4,1.1-0.7,2-0.9c1.3-0.3,2-0.4,2.1-0.5c0.3-0.3,0.4-0.9,0.4-1.7c0-0.9,0-1.4,0-1.5c0.2-0.3,0.3-0.9,0.3-1.6
			c0-0.9,0-1.4,0-1.5c-0.1-0.3-0.2-0.5-0.1-0.9c0-0.3,0.1-0.9,0.3-1.6c0.2-0.7,0.3-1.2,0.3-1.5C12.1,55.3,11.7,54.9,10.7,54.7z"/>
		<path fill="#721512" d="M31.1,60.5C31.1,60.5,31.1,60.5,31.1,60.5C31.1,60.4,31.1,60.4,31.1,60.5c-0.5,0-1.3-0.1-2.4-0.2
			c-1.1-0.1-1.9-0.2-2.6-0.2c-1.7,0-2.9,0.4-3.8,1.2c-0.1,0-0.4,0-0.8,0c-0.4,0-0.6-0.1-0.7-0.4c0.5-0.6,0.7-1.5,0.8-2.7
			c0.1-1.2,0.4-2.1,1.1-2.7c0.6-0.4,1.1-0.6,1.4-0.6c0.2,0,0.4,0.1,0.5,0.2c0.9-0.6,1.5-1,1.7-1.2c0.5-0.5,0.7-1.1,0.5-1.8
			c-0.5-2-2-3.3-4.4-3.9c-1,1.1-2.5,3.2-4.4,6.3c-1.7,2.7-3.2,4.7-4.4,6c-0.6,0.8-0.8,1.7-0.8,2.7c0,0.6,0.2,1.6,0.5,3.1
			c0.6-0.2,1.3-0.2,2.4,0c1.3,0.2,2.2,0.4,2.5,0.4c0.7,0,1.3-0.1,1.9-0.4c2.1,0.3,3.4,0.5,3.9,0.4l0.3-0.4l0.4,0.4
			c0.1,0,0.4-0.1,0.8-0.4l0.4,0.4c0.6,0.2,1.4,0.4,2.6,0.4c1.4,0,2.2,0,2.4,0c0.3-0.8,0.4-1.9,0.4-3.3
			C31.1,61.8,31.1,60.8,31.1,60.5L31.1,60.5z"/>
		<path fill="#721512" d="M51,48.8c-0.6,0-1.1,0.2-1.6,0.8c-0.5,0.6-1,0.9-1.3,1c-0.3-0.7-0.8-1.1-1.6-1.2c-1.1-0.2-1.7-0.4-2-0.6
			c-0.1-0.1,0.1-0.4,0.4-0.7c0.3,0.3,0.6,0.4,0.8,0.4c1.4-1.1,2.6-2.6,3.5-4.3c0.9-1.7,1.4-3.5,1.4-5.3c0-1.8-0.5-3.5-1.6-5.2
			c-1.2-1.9-2.6-3-4.2-3.3c-6.4-0.3-10.8-0.4-13.1-0.1c0,1,0,2.4,0,4.2c-0.8-0.4-1.2-0.7-1.2-1c0-0.1,0-0.2,0.1-0.3
			c-1.1-3-3.2-4.6-6-4.6c-1.7,0-3.5,0.5-5.5,1.6c-2.9,2.4-4.3,5.4-4.3,9.1c0.1,0,0.4,0.2,0.9,0.4c0.4,0.2,0.7,0.2,1,0.2
			c0.3,0,0.5-0.1,0.8-0.3c0.2,0,0.6,0.2,1.2,0.5c0.5,0.2,0.9,0.4,1.2,0.4c0.2,0,0.4,0,0.6-0.1c0.6-3.2,1.8-6.1,3.5-8.7
			c1.3,1.3,2.1,3.2,2.3,5.7c-0.1,0.3-0.7,1.8-1.8,4.7c-0.7,1.9-1.2,3.5-1.4,4.9c0.2-0.1,0.5-0.1,0.7-0.1c0.7,0,1.4,0.4,2.2,1.3
			c1.1,1.1,1.6,1.8,1.7,1.8c0.6-0.4,1-0.9,1.3-1.7c0.1-0.2,0.3-0.8,0.6-1.9c0.8-0.7,1.5-1.6,2.1-2.7c0,1.4,0,2.6,0,3.6
			c0,3.1,0.2,5.9,0.4,8.6c1.5,1,2.4,2.8,2.5,5.3c0,2.1,0.1,4.2,0.1,6.3l6.2-0.1c0.3-0.2,0.6-0.3,0.9-0.3c0.2,0,0.5,0.1,1,0.3
			c0.5,0.2,0.8,0.3,1.1,0.3c0.2,0,0.4,0,0.6-0.1c2.2-0.1,4.7-1.6,7.4-4.4c1.1-2.5,1.6-4.9,1.6-7.3C53.4,52.9,52.6,50.6,51,48.8z
			 M39.4,34.9c0.9-0.2,1.7,0.2,2.3,1c0.4,0.8,0.9,1.6,1.3,2.3c0,0.2,0.1,0.5,0.4,0.8c0.4,0.4,0.7,0.6,0.7,0.7l0.4-0.3
			c0.5,0.4,0.7,0.8,0.7,1.3c0,0.4-0.2,0.9-0.7,1.6c-0.4,0.7-0.7,1.2-0.8,1.5c-0.3-0.2-0.6-0.2-0.8-0.2c-0.4,0-0.8,0.3-1.2,0.9
			c-0.4,0.6-0.8,0.9-1.2,0.9c-0.2,0-0.3,0-0.5-0.1l-0.7,0.8C39.4,40.9,39.4,37.2,39.4,34.9z M45.5,58c-0.2,1.6-0.8,2.7-1.8,3.3
			c-0.3,0-0.7,0-1.1-0.1c-0.5,0-0.8-0.1-1-0.1c-0.8,0-1.5,0.4-1.9,1.2c-0.3-1.2-0.4-2.7-0.4-4.6c0.1-2.5,0.1-4,0.1-4.6
			c-0.4-0.2-0.3-0.8,0.4-1.8c0,0.1,0.1,0.4,0.4,0.8c0.6-0.1,1-0.2,1.1-0.5L41.1,51c0.4,0.2,0.8,0.3,1.2,0.3c0.8,0,1.4-0.3,1.8-1
			c-0.1,0.5,0.1,1.2,0.8,1.9c0.6,0.7,1,1.3,1,1.8h0.1C45.9,54,45.8,55.3,45.5,58z"/>
	</g>
</g>
<g>
</g>
<g>
</g>
<g>
</g>
<g>
</g>
<g>
</g>
<g>
</g>
</svg>
